<?xml version="1.0" ?><svg viewBox="0 0 32 32" xmlns="http://www.w3.org/2000/svg"><defs><style>.cls-1{fill:#9dcbf4;}.cls-2{fill:#389ad6;}.cls-3{fill:#2a5080;}</style></defs><title/><g data-name="coffee product" id="coffee_product"><path class="cls-1" d="M26.7,26.74,24.8,13H11.88a3,3,0,0,0-1.35.32,7.93,7.93,0,0,1,1.37,2.37c.07.71,1,9.28,1.38,13.31H24.72a2,2,0,0,0,2-2.26Z"/><path class="cls-2" d="M13.28,29H7.16a2,2,0,0,1-1.47-.64,2,2,0,0,1-.52-1.51l.36-4.76,1.12-3.36a3.75,3.75,0,0,1,1.47-2,2.08,2.08,0,0,1,1.13-.34,2.43,2.43,0,0,1,.38,0,2,2,0,0,1,1.28.85l1.43,2.13Z"/><path class="cls-2" d="M26.22,28.32a2,2,0,0,1-1.5.68h-3c4.49-.68,1.8-13,2.36-16h.71l1.9,13.74A2,2,0,0,1,26.22,28.32Z"/><path class="cls-3" d="M13,27a1,1,0,0,1-1-.9l-.85-8.51a5,5,0,0,0-.81-2.28L9.17,13.55a1,1,0,1,1,1.66-1.1L12,14.2a6.9,6.9,0,0,1,1.14,3.19L14,25.9a1,1,0,0,1-.9,1.1Z"/><path class="cls-1" d="M24,4.51V10H11a1.13,1.13,0,0,0,.31-.25c1-1.07-.26-3.5,1.45-4.3s7.33-.91,10.57-.93Z"/><path class="cls-2" d="M24,4.51V10H11a1.13,1.13,0,0,0,.31-.25c.48,0,1.05-.07,1.73-.07,7.8,0,9.8-3,10.29-5.16Z"/><path class="cls-3" d="M24.72,30H7.16A3,3,0,0,1,5,29a3,3,0,0,1-.79-2.27L5,16.66A6.43,6.43,0,0,1,5.29,15L6.6,11.05A3,3,0,0,1,9.44,9H23V5a1,1,0,0,0-1-1H11a1,1,0,0,0-1,1V7A1,1,0,0,1,8,7V5a3,3,0,0,1,3-3H22a3,3,0,0,1,3,3v5a1,1,0,0,1-1,1H9.44a1,1,0,0,0-.95.68L7.18,15.62a4.74,4.74,0,0,0-.24,1.19L6.16,26.92a1,1,0,0,0,.27.76,1,1,0,0,0,.73.32H24.72a1,1,0,0,0,1-1.13L23.88,13.13A1,1,0,0,1,24.73,12a1,1,0,0,1,1.13.86L27.69,26.6A3,3,0,0,1,27,29,3,3,0,0,1,24.72,30Z"/><path class="cls-3" d="M20,24.13a3.41,3.41,0,0,1-3.11-3.19A3.32,3.32,0,0,1,19.4,17a3.32,3.32,0,0,1,3.41,3.17h0a3.32,3.32,0,0,1-2.54,3.9A1.67,1.67,0,0,1,20,24.13ZM19.71,19h-.07c-.47.06-.91.76-.8,1.68s.73,1.51,1.18,1.44.92-.76.8-1.68h0C20.72,19.57,20.16,19,19.71,19Z"/><path class="cls-3" d="M16.05,14.11a1.76,1.76,0,0,0-1.42,2,2,2,0,0,0,.71,1.29,1.55,1.55,0,0,0,1,.34h.19A1.57,1.57,0,0,0,17.66,17a2,2,0,0,0,.26-1.25A1.76,1.76,0,0,0,16.05,14.11Z"/></g></svg>